<svg width="30" height="22" viewBox="0 0 30 22" fill="none" xmlns="http://www.w3.org/2000/svg">
<path d="M29.7286 11.2037C29.601 10.9796 29.4301 10.7832 29.2258 10.6259C29.0214 10.4686 28.7878 10.3535 28.5386 10.2875C27.6343 10.0547 26.6998 9.96116 25.7673 10.01C26.2673 7.52875 25.8923 5.56625 25.5098 4.4025C25.3573 3.92446 25.0323 3.52032 24.5981 3.26889C24.1639 3.01746 23.6516 2.93675 23.1611 3.0425C21.8891 3.32579 20.6796 3.83923 19.5923 4.5575C18.796 2.9308 17.6366 1.50881 16.2036 0.40125C15.8563 0.140794 15.4339 0 14.9998 0C14.5657 0 14.1433 0.140794 13.7961 0.40125C12.3627 1.50849 11.2032 2.93056 10.4073 4.5575C9.32 3.83923 8.11053 3.32579 6.83856 3.0425C6.34806 2.93675 5.83576 3.01746 5.40153 3.26889C4.9673 3.52032 4.64227 3.92446 4.48981 4.4025C4.11481 5.56625 3.73981 7.5275 4.23231 10.01C3.29983 9.96116 2.36534 10.0547 1.46106 10.2875C1.21179 10.3535 0.97818 10.4686 0.773862 10.6259C0.569544 10.7832 0.398617 10.9796 0.271059 11.2037C0.137566 11.4333 0.0511286 11.6872 0.0167903 11.9505C-0.017548 12.2138 0.00090041 12.4814 0.0710594 12.7375C0.494809 14.3087 1.79606 17.2975 5.73731 19.6525C9.67856 22.0075 13.1411 22 15.0061 22C16.8711 22 20.3398 22 24.2561 19.6525C28.1973 17.2975 29.4986 14.3087 29.9223 12.7375C29.9934 12.4818 30.0129 12.2145 29.9796 11.9511C29.9464 11.6878 29.861 11.4338 29.7286 11.2037ZM6.39231 5.0175C6.3938 5.0113 6.39761 5.0059 6.40296 5.00241C6.4083 4.99893 6.41478 4.99762 6.42106 4.99875C7.58417 5.26149 8.68178 5.75778 9.64731 6.4575C9.20768 7.8957 8.98935 9.3924 8.99981 10.8962C8.99981 13.2387 9.47106 15.1462 10.1386 16.6812C9.18962 15.7315 8.36853 14.662 7.69606 13.5C5.44356 9.5775 5.91231 6.5 6.39231 5.0175ZM6.76731 17.9363C3.43356 15.9463 2.35231 13.5062 1.99981 12.2125C2.91958 11.986 3.87401 11.9364 4.81231 12.0662C5.12556 12.9053 5.50813 13.7169 5.95606 14.4925C7.05588 16.3887 8.49676 18.0652 10.2061 19.4375C8.99738 19.09 7.83956 18.5853 6.76231 17.9363H6.76731ZM14.9998 19.8C13.8336 18.9325 10.9998 16.2712 10.9998 10.8962C10.9998 5.5875 13.7973 2.905 14.9998 2C16.2023 2.9075 18.9998 5.59 18.9998 10.8988C18.9998 16.2713 16.1661 18.9325 14.9998 19.8ZM20.3523 6.4575C21.3179 5.75822 22.4155 5.26237 23.5786 5C23.5848 4.99887 23.5913 5.00018 23.5967 5.00366C23.602 5.00715 23.6058 5.01255 23.6073 5.01875C24.0873 6.5 24.5561 9.5775 22.3036 13.5C21.6317 14.6636 20.8106 15.7343 19.8611 16.685C20.5286 15.1525 20.9998 13.2425 20.9998 10.9C21.0106 9.39489 20.7923 7.8969 20.3523 6.4575ZM27.9998 12.215C27.6536 13.4963 26.5748 15.9413 23.2386 17.9363C22.1612 18.5848 21.0034 19.0891 19.7948 19.4363C21.5041 18.0639 22.945 16.3874 24.0448 14.4912C24.4927 13.7156 24.8753 12.9041 25.1886 12.065C26.1266 11.9357 27.0807 11.9862 27.9998 12.2138V12.215Z" fill="#CEC7BB"/>
</svg>
